<?xml version="1.0" encoding="utf-8"?>
<!-- Generator: Adobe Illustrator 23.0.1, SVG Export Plug-In . SVG Version: 6.00 Build 0)  -->
<svg version="1.1" id="Capa_1" xmlns="http://www.w3.org/2000/svg" xmlns:xlink="http://www.w3.org/1999/xlink" x="0px" y="0px"
	 viewBox="0 0 32 32" style="enable-background:new 0 0 32 32;" xml:space="preserve">
<style type="text/css">
	.st0{fill:#FF5947;}
	.st1{fill:#FFFFFF;}
</style>
<g>
	<g>
		<ellipse class="st0" cx="16" cy="16" rx="14.8" ry="15"/>
	</g>
	<g>
		<path class="st1" d="M18.1,6.4c0,0.1-0.3,2.3-0.8,6.5h4.4v2.3H17L16.9,16c2.3,2,3.5,4.1,3.5,6.5c0,1.8-0.5,3.1-1.4,4
			c-0.9,0.8-2,1.2-3.3,1.2c-1.3,0-2.2-0.3-2.8-1c-0.6-0.7-0.9-1.5-0.9-2.5c0-0.2,0-0.5,0.1-0.7l0.9-8l-0.1-0.1h-2.4c0-0.2,0-0.5,0-1
			c0-0.5,0.1-0.9,0.3-1.3h2.6l1-8.2c0.4-0.2,1-0.2,1.7-0.2C17.3,4.4,18.1,5.1,18.1,6.4z M18.4,22.4c0-1.4-0.6-2.8-1.8-4.1
			c-0.4,3-0.5,4.7-0.5,5.2c0,0.9,0.3,1.4,0.9,1.4c0.4,0,0.8-0.2,1-0.6C18.2,23.8,18.4,23.2,18.4,22.4z"/>
	</g>
</g>
</svg>
